<?xml version="1.0" encoding="UTF-8" standalone="no"?>
<!DOCTYPE svg PUBLIC "-//W3C//DTD SVG 1.1//EN" "http://www.w3.org/Graphics/SVG/1.1/DTD/svg11.dtd">
<svg width="100%" height="100%" viewBox="0 0 309 79" version="1.1" xmlns="http://www.w3.org/2000/svg" xmlns:xlink="http://www.w3.org/1999/xlink" xml:space="preserve" xmlns:serif="http://www.serif.com/" style="fill-rule:evenodd;clip-rule:evenodd;stroke-linejoin:round;stroke-miterlimit:2;">
    <g transform="matrix(1,0,0,1,-402.577,-1275.49)">
        <g id="jkawbda" transform="matrix(0.481911,0,0,0.488529,219.451,728.507)">
            <rect x="380" y="1119.66" width="640" height="160" style="fill:none;"/>
            <clipPath id="_clip1">
                <rect x="380" y="1119.66" width="640" height="160"/>
            </clipPath>
            <g clip-path="url(#_clip1)">
                <g transform="matrix(2.07507,0,0,2.04696,-455.375,-1491.23)">
                    <path d="M511.211,1353.66C504.297,1353.66 498.885,1351.68 494.977,1347.72C491.069,1343.76 489.115,1338.45 489.115,1331.79C489.115,1325.12 491.72,1319.54 496.931,1315.03C502.142,1310.52 509.858,1308.26 520.08,1308.26L536.464,1308.26L536.464,1300.6C536.464,1291.38 532.055,1286.77 523.237,1286.77C515.821,1286.77 509.007,1287.67 502.793,1289.47L502.793,1299.54L492.271,1299.54L492.271,1281.65C496.781,1279.75 502.117,1278.25 508.28,1277.15C514.443,1276.04 519.579,1275.49 523.687,1275.49C531.704,1275.49 537.968,1277.77 542.477,1282.33C546.987,1286.89 549.241,1292.98 549.241,1300.6L549.241,1343.13L561.567,1343.13L561.567,1349.45C557.859,1351.75 553.6,1352.9 548.79,1352.9C543.98,1352.9 540.723,1352.1 539.02,1350.5C537.316,1348.9 536.464,1346.19 536.464,1342.38C528.949,1349.9 520.531,1353.66 511.211,1353.66ZM451.235,1286.77L451.235,1277L483.102,1277L483.102,1286.77L473.782,1286.77L450.032,1352.15L436.804,1352.15L412.904,1286.77L403.585,1286.77L403.585,1277L435.452,1277L435.452,1286.77L425.982,1286.77L443.418,1337.87L460.855,1286.77L451.235,1286.77ZM681.52,1286.77L681.52,1277L707.525,1277L707.525,1286.77L699.859,1286.77L681.069,1314.27L700.159,1342.38L711.283,1342.38L711.283,1352.15L681.52,1352.15L681.52,1342.38L686.18,1342.38L673.253,1323.29L660.776,1342.38L664.835,1342.38L664.835,1352.15L639.431,1352.15L639.431,1342.38L646.646,1342.38L666.639,1313.37L648.751,1286.77L639.582,1286.77L639.582,1277L670.096,1277L670.096,1286.77L662.73,1286.77L674.455,1304.2L685.729,1286.77L681.52,1286.77ZM606.662,1286.77L606.662,1277L632.667,1277L632.667,1286.77L625.001,1286.77L606.211,1314.27L625.302,1342.38L636.425,1342.38L636.425,1352.15L606.662,1352.15L606.662,1342.38L611.322,1342.38L598.395,1323.29L585.919,1342.38L589.977,1342.38L589.977,1352.15L564.574,1352.15L564.574,1342.38L571.789,1342.38L591.781,1313.37L573.893,1286.77L564.724,1286.77L564.724,1277L595.238,1277L595.238,1286.77L587.873,1286.77L599.597,1304.2L610.871,1286.77L606.662,1286.77ZM512.564,1342.38C521.182,1342.38 529.149,1337.52 536.464,1327.8L536.464,1318.18L519.93,1318.18C513.817,1318.18 509.282,1319.38 506.326,1321.79C503.37,1324.19 501.892,1327.23 501.892,1330.88C501.892,1334.54 502.793,1337.37 504.597,1339.38C506.401,1341.38 509.057,1342.38 512.564,1342.38Z" style="fill:rgb(36,131,245);fill-rule:nonzero;"/>
                </g>
            </g>
        </g>
    </g>
</svg>
